<svg xmlns="http://www.w3.org/2000/svg" width="438.28402" height="560.81698" viewBox="0 0 438.28402 560.81698" data-src="https://cdn.undraw.co/illustrations/happy_kals.svg" xmlns:xlink="http://www.w3.org/1999/xlink" role="img" artist="Katerina Limpitsouni" source="https://undraw.co/"><path d="m294.32834,316.1931s-21.33807,106.69034-57.44864,121.46285" fill="none" stroke="#2f2e41" stroke-miterlimit="10" stroke-width="2"/><path d="m242.46883,184.01224s-7.29308,2.45445-4.83861,9.74751c2.45447,7.29306,5.5987,41.6298,48.49518,45.01685l15.63523-5.26193-3.50919-10.42714s-2.224-30.71302-33.90341-46.43859c0,0-19.47743-3.59385-17.63663,1.87594,0,0-9.11636,3.06804-4.24258,5.48737Z" fill="#159b4d" stroke-width="0"/><path d="m242.46883,184.01224s-7.29308,2.45445-4.83861,9.74751c2.45447,7.29306,5.5987,41.6298,48.49518,45.01685l15.63523-5.26193-3.50919-10.42714s-2.224-30.71302-33.90341-46.43859c0,0-19.47743-3.59385-17.63663,1.87594,0,0-9.11636,3.06804-4.24258,5.48737Z" fill="#2f2e41" isolation="isolate" opacity=".3" stroke-width="0"/><path d="m217.73563,242.26008s-4.45456,6.27453,1.81997,10.72912,29.01315,30.37473,65.69737,7.88374l9.54995-13.45165-8.97089-6.36888s-19.86298-23.53079-54.7326-17.61596c0,0-17.86599,8.54947-13.16007,11.89041,0,0-5.56824,7.84316-.20367,6.9332l-.00005.00003Z" fill="#159b4d" stroke-width="0"/><path d="m217.73563,242.26008s-4.45456,6.27453,1.81997,10.72912,29.01315,30.37473,65.69737,7.88374l9.54995-13.45165-8.97089-6.36888s-19.86298-23.53079-54.7326-17.61596c0,0-17.86599,8.54947-13.16007,11.89041,0,0-5.56824,7.84316-.20367,6.9332l-.00005.00003Z" fill="#2f2e41" isolation="isolate" opacity=".2" stroke-width="0"/><path d="m258.69333,322.75433s1.91133,7.45385,9.36521,5.5425,41.92882-2.52147,48.46197-45.05261l-4.09761-15.97993-10.65701,2.73273s-30.79339-.04112-48.80655,30.39577c0,0-5.01679,19.16033.57359,17.72684,0,0,2.3892,9.31732,5.16045,4.63472h-.00005Z" fill="#159b4d" stroke-width="0"/><path d="m258.69333,322.75433s1.91133,7.45385,9.36521,5.5425,41.92882-2.52147,48.46197-45.05261l-4.09761-15.97993-10.65701,2.73273s-30.79339-.04112-48.80655,30.39577c0,0-5.01679,19.16033.57359,17.72684,0,0,2.3892,9.31732,5.16045,4.63472h-.00005Z" fill="#2f2e41" isolation="isolate" opacity=".2" stroke-width="0"/><path d="m348.71441,363.86709s7.53633,1.55458,9.09091-5.98177c1.55458-7.53635,16.1394-38.78021-19.20744-63.31961l-16.15678-3.33272-2.2226,10.77495s-13.55394,27.65009,5.88687,57.19551c0,0,15.0136,12.91818,16.17947,7.26593,0,0,9.42041,1.94319,6.42956-2.60224v-.00005Z" fill="#159b4d" stroke-width="0"/><path d="m348.71441,363.86709s7.53633,1.55458,9.09091-5.98177c1.55458-7.53635,16.1394-38.78021-19.20744-63.31961l-16.15678-3.33272-2.2226,10.77495s-13.55394,27.65009,5.88687,57.19551c0,0,15.0136,12.91818,16.17947,7.26593,0,0,9.42041,1.94319,6.42956-2.60224v-.00005Z" fill="#2f2e41" isolation="isolate" opacity=".2" stroke-width="0"/><path d="m431.12457,294.91783s5.80182-5.10204.69977-10.90391c-5.10204-5.80187-21.33346-36.38059-62.37276-22.87727l-12.43826,10.93802,7.29459,8.29508s13.9735,27.57991,49.41115,29.85423c0,0,19.43169-4.22733,15.60517-8.5787,0,0,7.25231-6.37757,1.80038-6.72745h-.00005Z" fill="#159b4d" stroke-width="0"/><path d="m431.12457,294.91783s5.80182-5.10204.69977-10.90391c-5.10204-5.80187-21.33346-36.38059-62.37276-22.87727l-12.43826,10.93802,7.29459,8.29508s13.9735,27.57991,49.41115,29.85423c0,0,19.43169-4.22733,15.60517-8.5787,0,0,7.25231-6.37757,1.80038-6.72745h-.00005Z" fill="#2f2e41" isolation="isolate" opacity=".2" stroke-width="0"/><path d="m414.92381,198.85976s-.52646-7.05741-7.58386-6.53095c-7.05741.52646-38.36929-4.49005-51.15458,32.96194l1.12866,15.12998,10.09018-.7527s27.87342,5.01145,49.09898-19.63609c0,0,7.63721-16.53722,2.34417-16.14238,0,0-.65805-8.82174-3.92355-5.02984v.00003Z" fill="#159b4d" stroke-width="0"/><path d="m414.92381,198.85976s-.52646-7.05741-7.58386-6.53095c-7.05741.52646-38.36929-4.49005-51.15458,32.96194l1.12866,15.12998,10.09018-.7527s27.87342,5.01145,49.09898-19.63609c0,0,7.63721-16.53722,2.34417-16.14238,0,0-.65805-8.82174-3.92355-5.02984v.00003Z" fill="#2f2e41" isolation="isolate" opacity=".2" stroke-width="0"/><path d="m337.79061,152.97382s-5.69327-4.20363-9.89693,1.48966c-4.20366,5.6933-28.42758,26.15795-8.37501,60.27552l12.20553,9.01194,6.01005-8.13988s21.97758-17.86138,17.13616-50.02637c0,0-7.55536-16.57477-10.7081-12.30481,0,0-7.11661-5.25453-6.37176-.30608l.00005.00003Z" fill="#159b4d" stroke-width="0"/><path d="m337.79061,152.97382s-5.69327-4.20363-9.89693,1.48966c-4.20366,5.6933-28.42758,26.15795-8.37501,60.27552l12.20553,9.01194,6.01005-8.13988s21.97758-17.86138,17.13616-50.02637c0,0-7.55536-16.57477-10.7081-12.30481,0,0-7.11661-5.25453-6.37176-.30608l.00005.00003Z" fill="#2f2e41" isolation="isolate" opacity=".2" stroke-width="0"/><path d="m371.97578,163.83376s-4.47064-5.48612-9.95674-1.0155-34.03434,18.27644-23.08535,56.30584l9.58436,11.76142,7.84369-6.39179s25.72561-11.84217,29.02592-44.20159c0,0-3.20123-17.93206-7.31588-14.57908,0,0-5.58828-6.85764-6.096-1.87927v-.00003Z" fill="#159b4d" stroke-width="0"/><path d="m435.90813,243.99682s2.97642-6.42067-3.44427-9.39707c-6.4207-2.9764-31.32776-22.60385-60.73052,3.88375l-6.38097,13.76495,9.17987,4.25545s21.9062,17.94884,52.44668,6.75495c0,0,14.72272-10.72601,9.90725-12.9583,0,0,3.72053-8.02584-.97803-6.30371v-.00003Z" fill="#159b4d" stroke-width="0"/><path d="m413.4401,333.70215s6.76828-3.66109,3.10716-10.42937-12.60952-40.06726-55.45586-36.09635l-14.51013,7.84885,5.23438,9.6768s7.42417,29.88506,41.31961,39.98335c0,0,19.80497.22286,17.05917-4.85334,0,0,8.46031-4.57639,3.24566-6.12997v.00003Z" fill="#159b4d" stroke-width="0"/><path d="m294.46244,346.07952s5.28438,5.59364,10.87796.30929c5.59364-5.28435,35.45358-22.52618,20.55564-62.89486l-11.32884-11.99192-7.99742,7.55521s-26.95525,14.88792-27.96043,50.24136c0,0,4.89772,19.19111,9.09296,15.22786,0,0,6.60543,6.99204,6.76006,1.55305h.00005Z" fill="#159b4d" stroke-width="0"/><path d="m228.1236,283.54153s-1.39484,7.56753,6.17269,8.96238,39.11284,15.31565,62.89927-20.54219l2.9903-16.22365-10.81956-1.99423s-27.93053-12.96617-57.05823,7.0951c0,0-12.5978,15.28341-6.92216,16.32952,0,0-1.74353,9.45941,2.73764,6.37308h.00005Z" fill="#159b4d" stroke-width="0"/><path d="m277.69579,164.0906s-7.07699,0-7.07699,7.07699-7.33191,37.92896,29.06519,53.46489h15.17204v-10.11823s7.07108-27.4234-15.92922-50.42367c0,0-15.92325-8.84626-15.92325-3.53852,0,0-8.84626,0-5.30777,3.53852v.00003Z" fill="#159b4d" stroke-width="0"/><circle cx="327.67719" cy="258.30323" r="43.78897" fill="#2f2e41" stroke-width="0"/><path d="m9.78325,419.1067l11.85349-83.91894,25.57162,16.87615-16.64005,71.12942c3.07403,4.42918,4.40127,10.55492,3.15439,16.89681-2.18176,11.0967-11.39504,18.62843-20.57844,16.82283-9.18348-1.80562-14.85931-12.26486-12.67755-23.36156,1.24697-6.34187,4.79477-11.50918,9.31664-14.44477l-.0001.00006Z" fill="#e09093" stroke-width="0"/><path d="m244.05055,412.54114l-11.85349-83.91894-25.57162,16.87615,16.64005,71.12942c-3.07403,4.42918-4.40127,10.55492-3.15439,16.89681,2.18176,11.0967,11.39504,18.62843,20.57844,16.82283,9.18348-1.80562,14.85931-12.26486,12.67755-23.36156-1.24697-6.34187-4.79477-11.50918-9.31664-14.44477l.0001.00006Z" fill="#e09093" stroke-width="0"/><path d="m143.923,119.28313l-55.80725,8.20695v14.88306s-47.6003-8.3175-54.16586,32.71724v101.76617l-22.97946,101.76617,29.54502,6.56556,36.93127-108.33173,14.1803,13.43152h73.86254l17.71561-13.43152,23.09064,91.91783,34.46919-13.13112-17.8637-85.35227s8.01536-106.69034-29.73661-123.10424c-37.75197-16.4139-37.75197-11.48973-37.75197-11.48973l-11.48973-16.4139Z" fill="#cacaca" stroke-width="0"/><path d="m127.63743.01566s-42.80446-2.19538-51.0114,45.40493l-9.30012,33.22012s-30.09323,47.20798,20.78985,48.84937c50.88308,1.64139,86.99366,3.28278,86.99366,3.28278v-11.48973l8.20695,14.77251s13.13112-31.18641,11.48973-36.11058-18.05529-34.46919-18.05529-34.46919c0,0,15.02915-56.34067-49.11337-63.46022Z" fill="#2f2e43" stroke-width="0"/><polygon points="56.92934 449.20248 45.43962 478.74749 78.26741 554.25142 125.86772 554.25142 125.86772 453.71245 134.28829 554.25142 178.39219 560.81698 206.29582 473.82332 188.24053 437.71275 56.92934 449.20248" fill="#e09093" stroke-width="0"/><path d="m91.39853,289.98767l-6.56556,18.05529s-49.24169,47.6003-39.39336,170.70454l160.8562-4.92417s22.97946-131.31118-31.18641-169.06315l-9.86148-14.77251h-73.84939Z" fill="#2f2e43" stroke-width="0"/></svg>